<svg xmlns="http://www.w3.org/2000/svg" version="1.1" xmlns:xlink="http://www.w3.org/1999/xlink" xmlns:svgjs="http://svgjs.dev/svgjs" width="1000" height="1000" viewBox="0 0 1000 1000"><rect width="1000" height="1000" fill="#010536"></rect><g transform="matrix(0.7,0,0,0.7,149.57575781287096,335.55322993621803)"><svg viewBox="0 0 396 186" data-background-color="#010536" preserveAspectRatio="xMidYMid meet" height="469" width="1000" xmlns="http://www.w3.org/2000/svg" xmlns:xlink="http://www.w3.org/1999/xlink"><g id="tight-bounds" transform="matrix(1,0,0,1,0.2400001341384268,0.1681365576102536)"><svg viewBox="0 0 395.52 185.6637268847795" height="185.6637268847795" width="395.52"><g><svg viewBox="0 0 395.52 185.6637268847795" height="185.6637268847795" width="395.52"><g><svg viewBox="0 0 395.52 185.6637268847795" height="185.6637268847795" width="395.52"><g id="textblocktransform"><svg viewBox="0 0 395.52 185.6637268847795" height="185.6637268847795" width="395.52" id="textblock"><g><svg viewBox="0 0 395.52 185.6637268847795" height="185.6637268847795" width="395.52"><g transform="matrix(1,0,0,1,0,0)"><svg width="395.52" viewBox="2.200000047683716 -33 70.30000305175781 33" height="185.6637268847795" data-palette-color="#fbfbf8"><path d="M19.1 0L2.2 0 2.2-0.8 6.45-2.85 6.45-30.15 2.2-32.2 2.2-33 19.5-33Q25.4-33 28.98-30.88 32.55-28.75 32.55-24.1L32.55-24.1Q32.55-21.3 30.68-19.18 28.8-17.05 25.6-15.88 22.4-14.7 18.3-14.7L18.3-14.7 14-14.7 14-2.85 19.1-0.8 19.1 0ZM16.1-30.25L14-30.25 14-17.15 16.4-17.15Q20.4-17.15 22.65-19 24.9-20.85 24.9-23.65L24.9-23.65Q24.9-27.15 22.6-28.7 20.3-30.25 16.1-30.25L16.1-30.25ZM52.45 0L36.4 0 36.4-0.8 40.65-2.85 40.65-30.15 36.4-32.2 36.4-33 52.45-33 52.45-32.2 48.2-30.15 48.2-2.85 52.45-0.8 52.45 0ZM61.4 0L48.2-16.65 61.9-30.35 58.2-32.2 58.2-33 70-33 70-32.2 66.7-30.8 55.1-19.65 69-2.25 72.5-0.8 72.5 0 61.4 0Z" opacity="1" transform="matrix(1,0,0,1,0,0)" fill="#fbfbf8" class="wordmark-text-0" data-fill-palette-color="primary" id="text-0"></path></svg></g></svg></g></svg></g></svg></g></svg></g><defs></defs></svg><rect width="395.52" height="185.6637268847795" fill="none" stroke="none" visibility="hidden"></rect></g></svg></g></svg>